<svg id="Calque_1" data-name="Calque 1" xmlns="http://www.w3.org/2000/svg" viewBox="0 0 66.3093 65.186"><defs><style>.cls-1{fill:#b3b3b3;}</style></defs><path class="cls-1" d="M38.8717,10.3106A27.4377,27.4377,0,1,0,66.3093,37.7483,27.4688,27.4688,0,0,0,38.8717,10.3106Zm0,50.7126A23.2749,23.2749,0,1,1,62.1466,37.7483,23.2749,23.2749,0,0,1,38.8717,61.0232Z"/><path class="cls-1" d="M46.7468,54.0843c-3.6807-.8457-3.8164-3.5308-3.748-8.6006.0078-.57.0156-1.1548.0156-1.7442L43.07,34.552a4.2394,4.2394,0,0,0-4.24-4.2514H33.4411a3.842,3.842,0,0,0,0,7.684h1.9453l-.0546,5.7491c0,5.3818.9082,12.5366,8.7607,12.5366a8.4044,8.4044,0,0,0,2.36-.2783l.2929-.0674a.9441.9441,0,0,0,.001-1.84Z"/><path class="cls-1" d="M38.4861,27.9959a4.5928,4.5928,0,1,0-4.5918-4.5928A4.5983,4.5983,0,0,0,38.4861,27.9959Z"/></svg>