<svg id="Calque_1" data-name="Calque 1" xmlns="http://www.w3.org/2000/svg" viewBox="0 0 66.3093 65.186"><defs><style>.cls-1{fill:none;stroke:#009640;stroke-width:0.1px;}.cls-2{fill:#ab3428;}</style></defs><line class="cls-1" x1="63.5859" y1="23.9337" x2="63.5859" y2="3420.1811"/><circle class="cls-2" cx="49.7926" cy="11.1526" r="6.0109" transform="translate(20.4341 52.8871) rotate(-67.5)"/><path class="cls-2" d="M62.5763,1.1265A2.99,2.99,0,1,0,57.9005,4.853c2.6894,3.374,3.208,7.708,1.289,10.7861a8.5132,8.5132,0,0,1-4.915,3.4864c-.4648.0058-.9561.001-1.3945.0058-.073,0-.1414.0164-.2131.0215H47.2384c-.583.0049-1.1709,0-1.751-.01a2.8674,2.8674,0,0,0-1.9766.6992,21.0793,21.0793,0,0,0-3.0547,3.17,23.57,23.57,0,0,0-4.663,15.2588,2.99,2.99,0,0,0,2.9863,2.9033c.0293,0,.0586-.001.0879-.001A2.99,2.99,0,0,0,41.77,38.0991a19.1038,19.1038,0,0,1,1.5049-8.2253,96.0473,96.0473,0,0,1-.2969,11.0515l-.1738,1.9892c-.0036.0414.004.0818.0021.1231-.0022.0463-.0138.09-.0138.1367,0,.0656.0151.1269.0193.1914.003.0467-.0028.0943.0023.1407l-.0431,18.69a2.9893,2.9893,0,0,0,5.9785,0l.03-16.0332h2.5371l.03,16.0332a2.9893,2.9893,0,0,0,5.9785,0l-.0425-18.8144c.0049-.07.021-.1368.021-.2081a2.926,2.926,0,0,0-.033-.3276l-.2854-6.5445c-.1328-2.9931-.1191-6.1123.043-9.2636l.1361-2.58a14.1889,14.1889,0,0,0,7.1-5.6592C67.5186,13.5786,66.84,6.477,62.5763,1.1265Z"/></svg>