<svg xmlns="http://www.w3.org/2000/svg" viewBox="0 0 77.6918 59.8159"><defs><style>.cls-1{fill:#4b5159;}</style></defs><g id="Calque_2" data-name="Calque 2"><g id="Layer_1-2" data-name="Calque 1"><path class="cls-1" d="M77.1254,8.8781c-.897-3.9719-2.7286-6.9591-5.0232-8.2024-2.17-1.164-4.0512-.605-6.2374.0459A33.8392,33.8392,0,0,1,56.102,2.3237c-1.0626.0271-4.2228.036-7.0251.0441l-.0008-.1109v.1109L48.467,2.37c-1.7153.006-2.9093.0159-3.7993.0641-.1943-.0021-.3867-.0245-.5815-.0224L33.4389,2.453c-.1726.0005-.3367.0446-.5088.0483-.85-.0423-1.9689-.0509-3.5257-.0566l-.7927-.0026v-.11h-.025l.0008.11c-2.7967-.0084-5.9362-.0209-6.9933-.0475A33.8819,33.8819,0,0,1,11.8188.7925C9.641.1417,7.7677-.4174,5.5856.7508,3.2951,1.99,1.4636,4.973.5665,8.9449-.368,13.0628-.4139,19.3085,2.5191,23.33a31.463,31.463,0,0,0,2.2655,2.616c1.1932,1.285,3.4128,3.68,3.4,4.7687l-.0084.7385c-.0083,1.2517.0084,2.4115.0084,2.4115h.0018c.0089.3549.0464.6788.0649,1.0224,0,.34.01.6128.0209.7841l.0287-.0018c.5082,6.4859,2.9247,11.1024,8.9873,17.3788,6.55,6.7673,12.8627,6.7673,21.6034,6.7673,8.8324,0,15.2158,0,21.716-6.8507,5.6572-5.9531,8.3912-10.1125,8.7727-17.2959l.0347.0023c.0057-.0915.0081-.267.0125-.4088h.0543l.025-1.4686c.0208-1.5062.0042-2.6326,0-3.2585-.0125-.9846,2.2112-3.3794,3.4045-4.6686a31.93,31.93,0,0,0,2.2571-2.6034C78.1059,19.2376,78.06,13,77.1254,8.8781ZM5.4772,21.1818C3.679,18.72,3.1366,14.1267,4.1254,9.75c.6467-2.8537,1.8733-5.0733,3.1917-5.7826.7635-.4089,1.3351-.3129,3.4587.3254A38.4075,38.4075,0,0,0,20.257,5.9652a26.04,26.04,0,0,0-5.113,3.6222c-.3337.3087-.6633.63-1.0347,1.01a20.2021,20.2021,0,0,0-4.5267,6.9883,22.6363,22.6363,0,0,0-1.34,6.7417c-.2629-.2877-.5189-.5779-.7839-.8632A27.4724,27.4724,0,0,1,5.4772,21.1818Zm24.8493,9.5459-.0066.062c-.0714.9505-1.8459.9523-1.8417-.0454A4.5873,4.5873,0,1,0,23.893,35.33a4.5425,4.5425,0,0,0,1.7132-.3468A81.8525,81.8525,0,0,0,19.4,40.6282a23.22,23.22,0,0,0-3.5932,5.0965,18.7453,18.7453,0,0,1-3.8994-10.833,11.649,11.649,0,0,1,3.9964-8.9745c2.4657-1.9943,6.5168-3.3336,10.0131-1.8358a7.05,7.05,0,0,1,4.08,3.8885,6.2592,6.2592,0,0,1,.3416,2.5212C30.3343,30.5756,30.3312,30.63,30.3265,30.7277ZM26.94,55.0666a16.5637,16.5637,0,0,1-.848-5.364,19.46,19.46,0,0,1,2.2989-8.4987l.3588-.6508c.1544-.2671,1.043-1.6147,1.9734-3.0248.86-1.31,1.7523-2.67,2.1862-3.3461a8.6482,8.6482,0,0,0,.9471-2.3156c.0209-.075.0375-.1543.0542-.2378.0126-.0625.0292-.146.0459-.292.0125-.0793.0167-.1335.0209-.146,0-.0251.0042-.1043.0083-.1878.0084-.0959.0126-.2.0167-.3254l.0209-.7218a1.736,1.736,0,0,0-.0662-.3343,9.5048,9.5048,0,0,0-.5388-2.9283,10.5845,10.5845,0,0,0-6.07-5.97c-4.894-2.0944-10.4221-.3254-13.7389,2.3531a13.7343,13.7343,0,0,0-1.7307,1.6817c.0031-.0446,0-.0762.0034-.1213A19.1514,19.1514,0,0,1,13,18.8788a16.8257,16.8257,0,0,1,3.7591-5.77c.2838-.2879.5633-.5674.8679-.8428A23.1659,23.1659,0,0,1,33.3312,6.119c.019.0006.0746.0008.0868.0013l.0005-.0093c.0113,0,.0217-.0032.0329-.0032l10.6473-.0417h.0751a23.4529,23.4529,0,0,1,16.3381,6.55l.4089.413a16.7557,16.7557,0,0,1,3.7758,5.7784,19.5438,19.5438,0,0,1,1.114,5.7785c.0049.0649,0,.1095.0047.1736a13.767,13.767,0,0,0-1.7362-1.6881c-3.3127-2.67-8.8491-4.4517-13.7263-2.3531a10.7239,10.7239,0,0,0-6.083,5.9745,9.4742,9.4742,0,0,0-.5424,2.9682,1.7394,1.7394,0,0,0-.0584.2944l.0167.7093c.0083.2.0208.3588.0292.4839l.0042.0668c0,.0125.0041.0417.0083.0751a2.64,2.64,0,0,0,.05.3129l.0125.0793a.2088.2088,0,0,1,.0083.0375,8.4726,8.4726,0,0,0,.9972,2.4825c.4172.6592,1.3225,2.036,2.19,3.3544.9221,1.3976,1.8024,2.7285,1.9526,2.983l.3755.6884A19.5619,19.5619,0,0,1,51.6,49.7026a16.66,16.66,0,0,1-.8623,5.4172c-3.2449,1.0037-6.9174,1.0413-11.846,1.0413C33.908,56.1611,30.22,56.1245,26.94,55.0666ZM58.2965,40.6323a82.3282,82.3282,0,0,0-6.2144-5.65,4.58,4.58,0,1,0,1.7169-8.823A4.5938,4.5938,0,0,0,49.21,30.7443c0,1.0162-1.8441,1.1536-1.867-.1371l-.0013-.0381a6.1368,6.1368,0,0,1,.35-2.5992A7.0479,7.0479,0,0,1,51.78,24.0773c3.4963-1.4895,7.5391-.1461,10.0048,1.8357a11.5273,11.5273,0,0,1,3.9884,8.6927,17.4934,17.4934,0,0,1-3.8236,11.2324A23.132,23.132,0,0,0,58.2965,40.6323ZM72.2148,21.115a28.8193,28.8193,0,0,1-1.9776,2.27c-.267.2871-.5249.58-.79.87a22.8154,22.8154,0,0,0-1.3338-6.736,20.1919,20.1919,0,0,0-4.581-7.0425L63.0611,10A26.3438,26.3438,0,0,0,57.5242,5.888,38.4807,38.4807,0,0,0,66.912,4.222c2.1153-.63,2.6827-.7426,3.4587-.33,1.3226.7176,2.545,2.933,3.1917,5.791C74.5554,14.06,74.013,18.6493,72.2148,21.115Z" transform="translate(0 0)"/><path class="cls-1" d="M34.2214,11.44a7.5942,7.5942,0,0,0-8.477-.3388,4.175,4.175,0,0,0-1.93,3.908c.3147,2.665,4.5979,3.44,5.9638,3.6288,1.9114.2592,4.3421.5919,5.6676-.6986C37.0614,16.3752,36.246,13.11,34.2214,11.44Z" transform="translate(0 0)"/><path class="cls-1" d="M47.9115,18.6376c1.3659-.1891,5.6491-.9638,5.9636-3.6288a4.1745,4.1745,0,0,0-1.93-3.908,7.5947,7.5947,0,0,0-8.4773.3388c-2.0245,1.67-2.84,4.9356-1.2242,6.4994C43.5694,19.23,46,18.8968,47.9115,18.6376Z" transform="translate(0 0)"/><path class="cls-1" d="M43.54,48.501c-.1084.0751-.3212.242-1.7064-.68l-1.1223-.7384V44.9064c3.161-1.0141,5.0332-4.34,4.4181-5.908-1.1009-2.8337-11.4987-2.8337-12.5759,0-.5872,1.5463,1.2495,4.8593,4.3779,5.8893v2.1948l-1.114.73c-1.2057.7844-1.5353.8052-1.7189.6884a1.8886,1.8886,0,1,0-2.0527,3.1708c2.3823,1.5479,4.71.0376,5.8326-.6967l.943-.6133.9262.6091a6.8006,6.8006,0,0,0,3.6339,1.3726,3.9942,3.9942,0,0,0,2.2112-.6717A1.8886,1.8886,0,1,0,43.54,48.501Z" transform="translate(0 0)"/></g></g></svg>