<?xml version="1.0" encoding="utf-8"?>
<!-- Generator: Adobe Illustrator 24.0.3, SVG Export Plug-In . SVG Version: 6.00 Build 0)  -->
<svg version="1.1" id="Calque_1" xmlns="http://www.w3.org/2000/svg" xmlns:xlink="http://www.w3.org/1999/xlink" x="0px" y="0px"
	 viewBox="0 0 90.66 71.39" style="enable-background:new 0 0 90.66 71.39;" xml:space="preserve">
<path style="fill:#FFFFFF;" d="M89.95,12.44c-1.22-5.39-3.8-9.39-7.28-11.27c-3.71-1.99-6.94-1.02-9.54-0.24
	C71,1.57,68.35,2.36,63.71,2.48c-1.19,0.03-5.27,0.04-8.25,0.05c-1.72,0.01-3.21,0.01-3.95,0.02c-0.11-0.01-0.23-0.01-0.36-0.01
	H39.47c-0.11,0-0.22,0-0.33,0.01c-0.74-0.01-2.23-0.01-3.95-0.02c-2.98-0.01-7.06-0.02-8.23-0.05c-4.66-0.13-7.31-0.92-9.44-1.55
	c-2.6-0.78-5.84-1.74-9.56,0.25C4.5,3.06,1.92,7.05,0.7,12.44c-1.23,5.43-1.16,13.12,2.72,18.43c0.76,1.05,1.7,2.07,2.71,3.15
	c0.76,0.82,2.1,2.26,2.62,3.06l0,2.77l0,0.14c0.23,8.98,3.05,14.99,10.78,23c8.11,8.38,15.92,8.38,25.8,8.38s17.68,0,25.8-8.39
	c7.73-8,10.55-14.02,10.78-23l0-2.91c0.52-0.8,1.86-2.25,2.62-3.06c1-1.08,1.95-2.1,2.69-3.13C91.11,25.56,91.18,17.87,89.95,12.44z
	"/>
<path style="fill:#434244;" d="M38.61,45.43c1.15-3.02,12.25-3.02,13.42,0c0.77,1.97-2.12,6.6-6.65,6.65
	C40.79,52.13,37.86,47.41,38.61,45.43z"/>
<path style="fill:#434244;" d="M29.29,19.83c0.34,2.84,4.91,3.67,6.36,3.87c2.04,0.28,4.63,0.63,6.05-0.75
	c1.72-1.67,0.85-5.15-1.31-6.94c-2.29-1.92-6.3-2.11-9.05-0.36C30.09,16.46,29.08,18.06,29.29,19.83z"/>
<path style="fill:#434244;" d="M59.31,15.66c-2.75-1.75-6.76-1.56-9.05,0.36c-2.16,1.78-3.03,5.27-1.31,6.94
	c1.41,1.38,4.01,1.02,6.05,0.75c1.46-0.2,6.03-1.03,6.36-3.87C61.58,18.06,60.56,16.46,59.31,15.66z"/>
<path style="fill:#434244;" d="M50.17,59.68c-1.68,0-3.12-0.97-3.87-1.47l-0.99-0.65l-1,0.66c-1.2,0.78-3.68,2.39-6.23,0.74
	c-0.93-0.6-1.2-1.85-0.6-2.79c0.61-0.93,1.85-1.2,2.79-0.6c0.18,0.12,0.53,0.11,1.83-0.73l1.19-0.78v-3.6h4.03v3.6l1.2,0.79
	c1.45,0.97,1.7,0.8,1.82,0.73c0.93-0.61,2.18-0.34,2.79,0.6c0.6,0.93,0.34,2.18-0.6,2.79C51.72,59.48,50.92,59.68,50.17,59.68z"/>
<path style="fill:#434244;" d="M86.32,13.25c-0.57-2.51-2.03-7.01-5.44-8.84c-2.37-1.27-4.41-0.67-6.76,0.04
	c-2.21,0.66-5.25,1.57-10.38,1.71c-1.23,0.03-5.16,0.04-8.32,0.05L52.3,6.21c-0.35,0-0.73,0-1.11,0.04c-0.05,0-0.11,0-0.16,0
	c-0.04,0-0.07,0-0.11,0L39.55,6.29c-0.19,0-0.38,0.01-0.57,0.02c-0.21-0.01-0.42-0.01-0.62-0.01l-3.12-0.01
	c-3.16-0.01-7.09-0.02-8.31-0.05c-5.15-0.14-8.18-1.04-10.39-1.71c-2.35-0.7-4.39-1.31-6.77-0.03c-3.4,1.84-4.86,6.33-5.43,8.84
	c-1,4.43-1.05,11.14,2.11,15.47c0.63,0.87,1.5,1.81,2.43,2.81c1.26,1.36,3.6,3.88,3.59,4.88v0.04l-0.01,0.86
	c-0.01,1.34,0.01,2.58,0.01,2.58h0c0.01,0.45,0.03,0.9,0.06,1.33c0,0.24,0.01,0.45,0.02,0.59l0.03,0
	c0.54,6.97,3.14,11.91,9.65,18.65c7.03,7.26,13.8,7.26,23.16,7.26c9.46,0,16.3,0,23.28-7.36c6.07-6.39,9.03-10.82,9.43-18.55l0.02,0
	c0.01-0.11,0.01-0.26,0.02-0.44h0.04c0-0.13,0-0.29,0.01-0.48c0.01-0.32,0.02-0.7,0.02-1.09c0.02-1.6,0.01-2.81,0-3.29l0-0.19
	c-0.01-0.99,2.33-3.52,3.59-4.88c0.92-1,1.8-1.94,2.42-2.8C87.37,24.39,87.32,17.68,86.32,13.25z M12.55,29.41
	c-0.2-0.22-0.4-0.44-0.61-0.66c-0.84-0.9-1.62-1.75-2.11-2.42c-1.89-2.59-2.46-7.45-1.41-12.08c0.68-3.01,1.96-5.34,3.33-6.08
	c0.78-0.42,1.33-0.31,3.58,0.36c2.01,0.6,4.93,1.47,9.45,1.78c-1.74,1.03-3.37,2.24-4.86,3.63c-0.36,0.33-0.71,0.68-1.08,1.06
	c-1.02,1.07-3.4,3.58-4.88,7.52C12.89,25.35,12.66,27.89,12.55,29.41z M24.35,47.5c-1.29,1.6-2.43,3.31-3.45,5.09
	c-2.75-3.73-3.91-7.03-4.18-11.37c-0.01-1.54,0.26-6.51,4.19-9.61c3.61-2.86,9.11-3.27,12.26-0.93c0.26,0.2,1.26,1,1.95,2.24
	c0.34,0.67,0.56,1.38,0.66,2.11c0.04,0.43,0.04,0.86,0.02,1.29c-0.07,0.49-0.22,0.69-0.28,0.75c-0.02,0.02-0.08,0.05-0.16,0.09
	c-0.03,0.01-0.04,0.03-0.07,0.04c-0.14,0.06-0.32,0.11-0.47,0.05c-0.35-0.13-0.41-0.3-0.43-0.49v-0.02
	c0.03-2.69-2.02-4.94-4.67-5.13c-1.37-0.1-2.73,0.4-3.75,1.34c-1.02,0.95-1.6,2.28-1.61,3.65c0,2.74,2.24,5,5.01,5.03l0.92,0.01
	C28.1,43.39,26.1,45.33,24.35,47.5z M69.83,52.71c-1.04-1.83-2.21-3.58-3.52-5.21c-1.75-2.17-3.75-4.11-5.92-5.86l0.93-0.01
	c2.76-0.03,5.01-2.29,5-5.03c0-1.37-0.59-2.7-1.61-3.65c-1.02-0.95-2.38-1.44-3.75-1.34c-2.65,0.18-4.71,2.44-4.67,5.1v0.05
	c-0.02,0.18-0.09,0.35-0.43,0.49c-0.21,0.08-0.46-0.04-0.6-0.11c-0.01-0.01-0.03-0.01-0.04-0.02c-0.04-0.02-0.06-0.04-0.06-0.04
	c0,0,0,0,0,0l0,0c-0.06-0.05-0.23-0.25-0.3-0.79c-0.02-0.43-0.01-0.85,0.02-1.23c0.05-0.37,0.13-0.74,0.24-1.1
	c0.11-0.35,0.26-0.69,0.42-1.03c0.69-1.24,1.69-2.05,1.95-2.24c3.15-2.34,8.65-1.93,12.26,0.93c3.64,2.88,4.14,7.34,4.19,9.22
	C73.82,45.75,72.63,49,69.83,52.71z M72.35,28.32c-5.09-4.03-12.72-4.47-17.36-1c-0.56,0.42-1.95,1.59-3.01,3.41
	c-0.04,0.06-0.08,0.11-0.12,0.18c0,0,0,0,0,0c0,0.01-0.01,0.01-0.01,0.02c0,0,0,0,0,0c-0.03,0.07-0.06,0.13-0.09,0.2
	c-0.45,0.86-0.83,1.84-0.99,2.96c-0.07,0.49-0.1,0.96-0.12,1.41c0,0.13-0.01,0.27-0.01,0.39c0,0.16,0.01,0.31,0.02,0.47
	c0.01,0.15,0.01,0.31,0.02,0.46c0.26,3.5,1.86,5.71,3.41,7.85c0.64,0.88,1.29,1.78,1.89,2.82c0.81,1.4,2.72,5.15,2.81,9.68
	c0.04,1.79-0.23,3.59-0.75,5.36c-3.46,1.08-7.39,1.08-12.66,1.08c-5.34,0-9.29-0.01-12.79-1.16c-0.51-1.75-0.77-3.52-0.73-5.29
	c0.09-4.54,2-8.28,2.81-9.68c0.6-1.04,1.26-1.94,1.89-2.82c1.55-2.14,3.15-4.35,3.41-7.85c0.02-0.15,0.01-0.3,0.02-0.45
	c0.01-0.16,0.02-0.31,0.02-0.48c0-0.13,0-0.26-0.01-0.38c-0.01-0.45-0.04-0.92-0.12-1.41c-0.16-1.1-0.53-2.07-0.97-2.92
	c-0.04-0.09-0.08-0.18-0.12-0.26c-0.03-0.06-0.07-0.11-0.11-0.17c-1.06-1.82-2.46-3-3.01-3.41c-4.65-3.46-12.27-3.02-17.36,1
	c-0.59,0.47-1.11,0.97-1.58,1.48c0.09-1.37,0.28-3.47,1.16-5.78c1.18-3.15,3.08-5.15,3.99-6.11c0.3-0.31,0.6-0.6,0.91-0.89
	c4.43-4.14,10.3-6.44,16.54-6.52c0.1,0,0.18,0,0.21,0l0-0.01c0.01,0,0.02,0,0.03,0l11.37-0.04c0.03,0,0.06,0,0.09,0
	c6.51,0,12.81,2.53,17.31,6.94c0.15,0.15,0.3,0.29,0.44,0.44c0.91,0.96,2.82,2.97,4,6.12c0.89,2.34,1.07,4.48,1.16,5.87
	C73.46,29.29,72.94,28.79,72.35,28.32z M80.82,26.26c-0.48,0.66-1.27,1.51-2.1,2.41c-0.2,0.22-0.41,0.44-0.61,0.66
	c-0.11-1.55-0.35-4.08-1.41-6.87c-1.48-3.95-3.87-6.46-4.91-7.56c-0.17-0.18-0.34-0.35-0.52-0.52c-1.63-1.6-3.46-2.99-5.44-4.14
	c4.54-0.31,7.47-1.18,9.49-1.78c2.25-0.67,2.8-0.78,3.58-0.36c1.38,0.74,2.65,3.07,3.34,6.08C83.28,18.81,82.72,23.66,80.82,26.26z"
	/>
</svg>
