<?xml version="1.0" encoding="utf-8"?>
<!-- Generator: Adobe Illustrator 22.1.0, SVG Export Plug-In . SVG Version: 6.00 Build 0)  -->
<svg version="1.1" id="Layer_1" xmlns="http://www.w3.org/2000/svg" xmlns:xlink="http://www.w3.org/1999/xlink" x="0px" y="0px"
	 viewBox="0 0 490.1 374.6" style="enable-background:new 0 0 490.1 374.6;" xml:space="preserve">
<style type="text/css">
	.st0{fill:#424143;}
	.st1{fill:none;stroke:#424143;stroke-width:10;stroke-linejoin:round;stroke-miterlimit:10;}
	.st2{fill:none;stroke:#424143;stroke-width:10;stroke-linecap:square;stroke-linejoin:round;stroke-miterlimit:10;}
	.st3{fill:#FFFFFF;}
	.st4{fill:#FFFFFF;stroke:#424143;stroke-width:10;stroke-linejoin:round;stroke-miterlimit:10;}
	.st5{fill:none;stroke:#424143;stroke-width:10;stroke-linecap:round;stroke-miterlimit:10;}
	.st6{fill:#424143;stroke:#424143;stroke-width:10;stroke-linejoin:round;stroke-miterlimit:10;}
	.st7{clip-path:url(#SVGID_2_);}
	.st8{fill:none;stroke:#424143;stroke-width:9.1877;stroke-linecap:square;stroke-linejoin:round;stroke-miterlimit:10;}
	.st9{fill:#FFFFFF;stroke:#424143;stroke-width:9.1877;stroke-linejoin:round;stroke-miterlimit:10;}
	.st10{fill:none;stroke:#424143;stroke-width:9.1877;stroke-linecap:round;stroke-miterlimit:10;}
	.st11{fill:none;stroke:#424143;stroke-width:9.1877;stroke-linejoin:round;stroke-miterlimit:10;}
	.st12{clip-path:url(#SVGID_4_);}
	.st13{fill:#424143;stroke:#424143;stroke-width:7.9031;stroke-linejoin:round;stroke-miterlimit:10;}
	.st14{fill:#333333;}
	.st15{fill:none;stroke:#FFFFFF;stroke-width:17;stroke-linejoin:round;stroke-miterlimit:10;}
	.st16{clip-path:url(#SVGID_6_);}
	.st17{clip-path:url(#SVGID_8_);}
	.st18{fill:none;stroke:#424143;stroke-width:9.3251;stroke-linecap:square;stroke-linejoin:round;stroke-miterlimit:10;}
	.st19{fill:#FFFFFF;stroke:#424143;stroke-width:9.3251;stroke-linejoin:round;stroke-miterlimit:10;}
	.st20{fill:none;stroke:#424143;stroke-width:9.3251;stroke-linecap:round;stroke-miterlimit:10;}
	.st21{fill:none;stroke:#424143;stroke-width:9.3251;stroke-linejoin:round;stroke-miterlimit:10;}
	.st22{fill:#FFFFFF;stroke:#424143;stroke-width:10.1495;stroke-linejoin:round;stroke-miterlimit:10;}
	.st23{fill:#424143;stroke:#424143;stroke-width:10.1495;stroke-linejoin:round;stroke-miterlimit:10;}
	.st24{clip-path:url(#SVGID_10_);}
	.st25{fill:#E6E6E6;}
	.st26{fill:#CCCCCC;}
	.st27{fill:#B3B3B3;}
	.st28{fill:#999999;}
	.st29{fill:#808080;}
	.st30{fill:#666666;}
	.st31{fill:none;stroke:#FFFFFF;stroke-width:17;stroke-linecap:square;stroke-linejoin:round;stroke-miterlimit:10;}
	.st32{fill:none;stroke:#FFFFFF;stroke-width:17;stroke-linecap:round;stroke-miterlimit:10;}
	.st33{fill:none;stroke:#424143;stroke-width:9.681;stroke-linejoin:round;stroke-miterlimit:10;}
	.st34{fill:none;stroke:#424143;stroke-width:9.681;stroke-linecap:square;stroke-linejoin:round;stroke-miterlimit:10;}
	.st35{fill:none;stroke:#424143;stroke-width:9.681;stroke-linecap:round;stroke-miterlimit:10;}
	.st36{fill:#424143;stroke:#424143;stroke-width:9.681;stroke-linejoin:round;stroke-miterlimit:10;}
	.st37{fill:#FFFFFF;stroke:#FFFFFF;stroke-width:11.549;stroke-linejoin:round;stroke-miterlimit:10;}
</style>
<g>
	<path class="st0" d="M480,45.6c-9.3-25.1-23-41-38.7-44.7C429-2.1,419.9,3.1,409.5,9c-5.2,3-11.2,6.3-18.9,9.7
		c-6.9,3-17.4,6.3-29,9.1c-17,4.2-35.1,6.1-53.6,5.6c-5.5-0.1-10.2,4-10.6,9.6c-0.4,5.5,3.5,10.4,9,11.1c17,2.2,49.3,9.8,74,35.4
		c4.8,5,16.2,16.7,23.2,35.4c4.1,10.9,5.6,21,6.3,29c-5.9-6-13.2-11.7-22.3-16c-14.5-6.8-27.2-7.2-40.7-7.5l-0.3,0
		c-12.3-0.3-26.3-0.7-41.9,6.9l-0.4,0.2c-16,7.9-26.7,24-28.3,41.9c-0.1,0.2-0.1,0.5-0.2,0.7c-0.1,0.8-0.8,5.3,0.3,10.8
		c0.4,2.2,1.1,4.4,2.1,6.6c0.1,0.3,0.3,0.6,0.4,0.9c3.4,7.5,9.2,13.9,13.2,18.2c3.6,4.5,7,9.3,8.7,14c0.9,2.4,1.3,5,1.4,7.8
		c0,2.4-0.4,5-1.1,7.7c-1.4,5.3-4,10.8-7.6,16h0c0,0.1-0.1,0.1-0.1,0.2l0,0c-5.4,7.9-5,18.5,1,26.4c5.9,7.8,13.5,20.8,15.9,37.9
		c1.1,7.6,1,15.3-0.1,23c-18.2,4.1-38.8,4.1-64.3,4.1c-26,0-46.9,0-65.4-4.5c-1.1-7.6-1.1-15.1-0.1-22.7c2.4-17.1,10-30,15.9-37.9
		c6-7.9,6.3-18.5,1-26.4c0,0,0,0,0-0.1c0,0-0.1-0.1-0.1-0.1c-3.6-5.2-6.2-10.8-7.6-16c-0.7-2.7-1.1-5.3-1.1-7.7
		c0.1-2.8,0.5-5.4,1.4-7.8c1.7-4.7,5.1-9.5,8.7-14c3.5-3.8,8.5-9.3,12-15.8c1.7-2.9,2.9-6.1,3.6-9.5c0-0.1,0.1-0.3,0.1-0.4
		c0.9-4.6,0.6-8.4,0.4-10.1c-1.1-18.5-12-35.2-28.4-43.4l-0.4-0.2c-15.5-7.6-29.5-7.2-41.9-6.9l-0.3,0c-13.5,0.3-26.3,0.7-40.7,7.5
		c-9.1,4.3-16.4,10-22.2,16c0.7-8,2.2-18.1,6.3-29c7-18.7,18.4-30.4,23.2-35.4c24.8-25.6,57-33.2,74-35.4c5.5-0.7,9.4-5.6,9-11.1
		c-0.4-5.5-5.1-9.7-10.6-9.6c-18.6,0.5-36.6-1.3-53.6-5.6c-11.6-2.9-22.1-6.2-29-9.1C91.8,15.3,85.8,12,80.6,9
		C70.1,3.1,61.1-2.1,48.8,0.8C33.1,4.6,19.3,20.5,10.1,45.6C-4,83.9-6.2,143,22.4,182.1c7.7,10.5,22.9,25.3,36.5,30.1v4.4
		c0,0.1,0,0.2,0,0.2c1.1,45.7,15,75.1,55.3,116.7c39,40.3,76.7,41,128.4,41c1,0,1.9,0,2.9,0c53.7,0,92.4,0,131.9-41.6
		c37.3-39.2,53.9-65.4,53.7-116.4v-4.4c13.6-4.8,28.8-19.6,36.5-30.1C496.3,143,494.1,83.9,480,45.6z M39.2,169.8
		c-23-31.5-22.3-82.7-9.6-117.1c6.5-17.6,15.7-29.7,24-31.7c4-1,7.4,0.7,16.7,6c5.4,3.1,12.2,6.9,20.9,10.7
		c8,3.4,19.4,7.1,32.2,10.2c2,0.5,4.1,1,6.1,1.4c-11.8,6.1-23.9,14.4-34.8,25.6c-5.3,5.4-19.2,19.8-27.8,42.6
		c-6.3,16.8-7.4,31.5-8.1,41.3c-0.6,8.2-0.6,16.6,0,24.8v5.2C53.1,185,45.5,178.5,39.2,169.8z M79.7,193.1c2.5-7,11-26.8,31.6-36.5
		c10.5-5,19.7-5.2,32.4-5.5l0.3,0c10.9-0.3,21.3-0.5,32.2,4.8l0.3,0.1c9.8,4.8,16.2,14.9,16.9,26.1c0,3,0,4.3-0.1,4.8
		c0,0.2-0.1,0.3-0.1,0.5c-0.1,0.5-0.4,1.3-0.7,2c-0.1,0.1-0.1,0.2-0.2,0.4c-0.1,0.3-0.3,0.6-0.5,0.9c-1,1.5-2.3,2.6-3.9,3.2
		c-0.8,0.3-1.5,0.4-2.1,0.4c0,0,0,0,0,0h-0.1c-1.2,0-2.2-0.5-2.8-0.9c-1.4-1-2.2-2.5-2.2-4.1v-0.7c0-14.6-11.1-26.7-25.3-27.6
		c-7.5-0.5-14.9,2.2-20.3,7.3c-5.5,5.1-8.6,12.3-8.6,19.8c0,14.9,12.2,27.1,27.1,27.1h14.6c-25.9,19.4-43.8,38.3-53.2,56
		c-2.9,5.4-6,13.1-8.1,23c-19.6-25.3-26.6-46.6-27.3-77.6V193.1z M383.1,295.2c-2.1-10.4-5.4-18.4-8.3-24.1
		c-9.4-17.7-27.3-36.6-53.2-56h14.7c14.9,0,27.1-12.2,27.1-27.1c0-7.5-3.1-14.7-8.6-19.8c-5.4-5.1-12.9-7.8-20.3-7.3
		c-14.2,0.9-25.3,13.1-25.3,27.6v0.7c0,1.7-0.8,3.2-2.2,4.1c-0.7,0.5-1.6,0.9-2.8,0.9h0c0,0,0,0,0,0c-0.6,0-1.4-0.1-2.1-0.4
		c-3.2-1.2-5.5-4.6-5.5-8.5l0-1.2c-0.1-11.9,6.6-23,17-28.1l0.3-0.1c11-5.3,21.3-5.1,32.2-4.8l0.3,0c12.7,0.3,21.9,0.5,32.4,5.5
		c20.6,9.8,29.2,29.6,31.6,36.6v23.4C410.4,247,405.8,266.6,383.1,295.2z M450.9,169.8c-6.4,8.7-13.9,15.2-19.8,19.1v-4.8
		c0.6-8.4,0.6-16.9,0-25.3c-0.7-9.7-1.7-24.4-8.1-41.3c-8.6-22.8-22.5-37.2-27.8-42.6c-10.9-11.2-22.9-19.5-34.8-25.6
		c2-0.4,4.1-0.9,6.1-1.4c12.8-3.2,24.2-6.8,32.2-10.2c8.8-3.8,15.5-7.6,20.9-10.7c9.4-5.3,12.7-7,16.7-6c8.3,2,17.5,14.1,24,31.7
		C473.2,87.1,473.9,138.3,450.9,169.8z"/>
	<path class="st0" d="M165.2,68.3c-9.8,4.2-19.6,14.5-19.6,28.2c0,20,24.2,29.2,38.7,32.9c6.8,1.7,15,3.8,23,3.8
		c6.2,0,12.2-1.2,17.4-4.8c6.2-4.3,10-11.1,10.8-19.2c1-10.8-3.5-22.7-11.8-31C209.8,64.2,184.6,59.9,165.2,68.3z M214.8,107.3
		c-0.2,1.9-0.8,3.3-1.8,4c-4.2,2.9-16.3-0.2-23.5-2c-15-3.8-23-9.9-23-12.8c0,0,0,0,0,0c0-4,3.5-7.6,7-9.1c4-1.7,8.5-2.5,13.1-2.5
		c8.6,0,17.4,2.9,22.5,8C212.9,96.7,215.3,102.6,214.8,107.3z"/>
	<path class="st0" d="M265.3,128.5c5.2,3.6,11.3,4.8,17.5,4.8c8,0,16.2-2.1,23-3.8c14.4-3.7,38.6-12.9,38.7-32.9
		c0-13.7-9.8-24-19.6-28.2c-19.4-8.3-44.5-4.1-58.5,9.9c-8.3,8.3-12.8,20.1-11.8,31C255.3,117.4,259.1,124.3,265.3,128.5z M281,93
		c5.2-5.2,13.9-8,22.5-8c4.6,0,9.1,0.8,13.1,2.5c3.5,1.5,7,5.1,7,9.1c0,2.9-8,9-23,12.8c-7.2,1.8-19.3,4.9-23.5,2
		c-1-0.7-1.7-2.1-1.8-4C274.8,102.8,277.2,96.9,281,93z"/>
	<path class="st0" d="M219.6,201.2c0.9,5,5.3,8.6,10.2,8.6c0.6,0,1.2-0.1,1.8-0.2c12.4-2.2,14.6-2.2,26.9-0.1
		c5.7,0.9,11-2.9,11.9-8.5s-2.9-11-8.5-11.9c-14.7-2.4-19.1-2.4-33.9,0.2C222.4,190.2,218.6,195.6,219.6,201.2z"/>
	<path class="st0" d="M285.2,234.5c-7-18.2-73.4-18.1-80.3,0c-3.9,10.2,8.6,32.6,29.8,38.4V289l-8.1,4.9c-8.9,5.4-11.8,5.6-14.2,4.2
		c-4.9-3-11.3-1.4-14.3,3.5s-1.4,11.3,3.5,14.3c4.5,2.7,9,3.8,13.3,3.8c9.2,0,17.3-4.9,22.3-7.9l7.7-4.7l7.7,4.7
		c7.4,4.5,21.2,12.8,35.6,4.2c4.9-3,6.5-9.3,3.5-14.3c-3-4.9-9.3-6.5-14.3-3.5c-2.4,1.5-5.3,1.2-14.2-4.2l-8.1-4.9v-16.1
		C276.6,267.1,289.2,244.8,285.2,234.5z"/>
</g>
</svg>
