<?xml version="1.0" encoding="utf-8"?>
<!-- Generator: Adobe Illustrator 24.0.1, SVG Export Plug-In . SVG Version: 6.00 Build 0)  -->
<svg version="1.1" id="Layer_1" xmlns="http://www.w3.org/2000/svg" xmlns:xlink="http://www.w3.org/1999/xlink" x="0px" y="0px"
	 viewBox="0 0 137.5 137.5" style="enable-background:new 0 0 137.5 137.5;" xml:space="preserve">
<style type="text/css">
	.st0{fill:none;stroke:#424143;stroke-width:10;stroke-linejoin:round;stroke-miterlimit:10;}
	.st1{fill:none;stroke:#424143;stroke-width:10;stroke-linecap:square;stroke-linejoin:round;stroke-miterlimit:10;}
	.st2{fill:#FFFFFF;}
	.st3{fill:#424143;}
	.st4{fill:#FFFFFF;stroke:#424143;stroke-width:10;stroke-linejoin:round;stroke-miterlimit:10;}
	.st5{fill:none;stroke:#424143;stroke-width:10;stroke-linecap:round;stroke-miterlimit:10;}
	.st6{fill:#424143;stroke:#424143;stroke-width:10;stroke-linejoin:round;stroke-miterlimit:10;}
	.st7{clip-path:url(#SVGID_2_);}
	.st8{fill:none;stroke:#424143;stroke-width:9.1877;stroke-linecap:square;stroke-linejoin:round;stroke-miterlimit:10;}
	.st9{fill:#FFFFFF;stroke:#424143;stroke-width:9.1877;stroke-linejoin:round;stroke-miterlimit:10;}
	.st10{fill:none;stroke:#424143;stroke-width:9.1877;stroke-linecap:round;stroke-miterlimit:10;}
	.st11{fill:none;stroke:#424143;stroke-width:9.1877;stroke-linejoin:round;stroke-miterlimit:10;}
	.st12{clip-path:url(#SVGID_4_);}
	.st13{fill:#424143;stroke:#424143;stroke-width:7.9031;stroke-linejoin:round;stroke-miterlimit:10;}
	.st14{fill:#FFFFFF;stroke:#424143;stroke-width:11;stroke-linejoin:round;stroke-miterlimit:10;}
	.st15{fill:none;}
	.st16{fill:none;stroke:#FFFFFF;stroke-width:17;stroke-linejoin:round;stroke-miterlimit:10;}
	.st17{clip-path:url(#SVGID_6_);}
	.st18{clip-path:url(#SVGID_8_);}
	.st19{fill:none;stroke:#424143;stroke-width:9.3251;stroke-linecap:square;stroke-linejoin:round;stroke-miterlimit:10;}
	.st20{fill:#FFFFFF;stroke:#424143;stroke-width:9.3251;stroke-linejoin:round;stroke-miterlimit:10;}
	.st21{fill:none;stroke:#424143;stroke-width:9.3251;stroke-linecap:round;stroke-miterlimit:10;}
	.st22{fill:none;stroke:#424143;stroke-width:9.3251;stroke-linejoin:round;stroke-miterlimit:10;}
	.st23{fill:#FFFFFF;stroke:#424143;stroke-width:10.1495;stroke-linejoin:round;stroke-miterlimit:10;}
	.st24{fill:#424143;stroke:#424143;stroke-width:10.1495;stroke-linejoin:round;stroke-miterlimit:10;}
	.st25{clip-path:url(#SVGID_10_);}
	.st26{fill:#E6E6E6;}
	.st27{fill:#CCCCCC;}
	.st28{fill:#B3B3B3;}
	.st29{fill:#999999;}
	.st30{fill:#808080;}
	.st31{fill:#666666;}
	.st32{fill:none;stroke:#FFFFFF;stroke-width:17;stroke-linecap:square;stroke-linejoin:round;stroke-miterlimit:10;}
	.st33{fill:none;stroke:#FFFFFF;stroke-width:17;stroke-linecap:round;stroke-miterlimit:10;}
	.st34{fill:none;stroke:#424143;stroke-width:9.681;stroke-linejoin:round;stroke-miterlimit:10;}
	.st35{fill:none;stroke:#424143;stroke-width:9.681;stroke-linecap:square;stroke-linejoin:round;stroke-miterlimit:10;}
	.st36{fill:none;stroke:#424143;stroke-width:9.681;stroke-linecap:round;stroke-miterlimit:10;}
	.st37{fill:#424143;stroke:#424143;stroke-width:9.681;stroke-linejoin:round;stroke-miterlimit:10;}
	.st38{fill:#FFFFFF;stroke:#FFFFFF;stroke-width:11.549;stroke-linejoin:round;stroke-miterlimit:10;}
	.st39{fill:#FFFFFF;stroke:#424143;stroke-width:9;stroke-miterlimit:10;}
	.st40{fill:#FFFFFF;stroke:#424143;stroke-width:9;stroke-linecap:square;stroke-miterlimit:10;}
	.st41{fill:#424143;stroke:#424143;stroke-width:18.7628;stroke-linejoin:round;stroke-miterlimit:10;}
	.st42{fill:#FFFFFF;stroke:#424143;stroke-width:19;stroke-linejoin:round;stroke-miterlimit:10;}
	
		.st43{clip-path:url(#SVGID_12_);fill:none;stroke:#424143;stroke-width:9.1877;stroke-linecap:square;stroke-linejoin:round;stroke-miterlimit:10;}
	.st44{clip-path:url(#SVGID_12_);fill:#FFFFFF;stroke:#424143;stroke-width:11.1552;stroke-linejoin:round;stroke-miterlimit:10;}
	.st45{clip-path:url(#SVGID_12_);fill:none;stroke:#424143;stroke-width:11.1552;stroke-linecap:round;stroke-miterlimit:10;}
	.st46{clip-path:url(#SVGID_12_);fill:none;stroke:#424143;stroke-width:9.1877;stroke-linejoin:round;stroke-miterlimit:10;}
	.st47{clip-path:url(#SVGID_12_);fill:#424143;}
	.st48{clip-path:url(#SVGID_12_);fill:#424143;stroke:#424143;stroke-width:11.1552;stroke-linejoin:round;stroke-miterlimit:10;}
</style>
<g>
	<path class="st3" d="M127.8,9.8v118H9.8V9.8H127.8 M127.8,0H9.8C4.4,0,0,4.4,0,9.8v118c0,5.4,4.4,9.8,9.8,9.8h118
		c5.4,0,9.8-4.4,9.8-9.8V9.8C137.5,4.4,133.1,0,127.8,0L127.8,0z"/>
</g>
<g>
	<defs>
		<rect id="SVGID_11_" x="9.8" y="9.8" width="118" height="118"/>
	</defs>
	<clipPath id="SVGID_2_">
		<use xlink:href="#SVGID_11_"  style="overflow:visible;"/>
	</clipPath>
	
		<path style="clip-path:url(#SVGID_2_);fill:#FFFFFF;stroke:#424143;stroke-width:11.1552;stroke-linejoin:round;stroke-miterlimit:10;" d="
		M32.5,25.2c0,5.7,9.5,8.5,12.6,9.3c4.3,1.1,9.7,2.5,13,0.2c4.1-2.8,3.1-9.9-1-14c-4.4-4.4-12.9-5.9-19.2-3.1
		C35.1,18.8,32.5,21.7,32.5,25.2z"/>
	
		<path style="clip-path:url(#SVGID_2_);fill:none;stroke:#424143;stroke-width:11.1552;stroke-linecap:round;stroke-miterlimit:10;" d="
		M85.6,116.6c-3.7,2.2-7.3,0.4-11-1.8l-5.8-3.5V99.4v11.8l-5.8,3.5c-3.7,2.2-7.3,4-11,1.8"/>
	
		<path style="clip-path:url(#SVGID_2_);fill:none;stroke:#424143;stroke-width:9.1877;stroke-linejoin:round;stroke-miterlimit:10;" d="
		M36.1,139.2c-0.8-3.4-1.5-8.5-0.6-14.6c1.2-8.9,5.2-15.3,7.9-18.9c1.4-1.9,1.6-4.4,0.3-6.3c0,0,0,0,0,0c0,0,0,0,0,0
		c-1.9-2.7-3.3-5.7-4-8.5c-0.4-1.6-0.6-3.1-0.6-4.6c0-2.2,0.5-3.9,0.9-5c2.1-5.9,8.1-10.8,9.8-14.6c0.5-1.1,0.8-2.3,0.8-2.3
		c0.1-0.4,0.1-0.6,0.1-3.1c0,0,0.2,1.4-0.1,3.1c-0.2,0.8-0.4,1.5-0.8,2.3c-1.3,2.9-3.9,5.6-5.5,7.3c-1.4,1.5-2.9,2.9-4.7,4.2
		c-0.1,0.1-0.3,0.2-0.3,0.2c-1.3,0.9-14.1,11.3-23.8,24.4C1,122.3-6.8,148.4-7.8,151.9"/>
	<circle style="clip-path:url(#SVGID_2_);fill:#424143;" cx="28.4" cy="64" r="6.4"/>
	
		<path style="clip-path:url(#SVGID_2_);fill:#FFFFFF;stroke:#424143;stroke-width:11.1552;stroke-linejoin:round;stroke-miterlimit:10;" d="
		M-8.9,65.1C-8.2,63-4.1,51.5,7.6,45.9c5.6-2.6,10.4-2.7,16.3-2.9c5.2-0.1,10.5-0.3,16.4,2.6c0.1,0,0.1,0.1,0.2,0.1
		c6.2,3.1,10.1,9.6,10.1,16.6c0,0.2,0,0.4,0,0.5c0,3.6-2.1,6.9-5.5,8.1c-4.8,1.7-9.3-1.8-9.3-6.4v-0.3c0-3.9-3-7.4-6.9-7.6
		C24.5,56.3,21,59.7,21,64v0c0,4.1,3.3,7.4,7.4,7.4h14.2"/>
	<circle style="clip-path:url(#SVGID_2_);fill:#424143;" cx="109.1" cy="64" r="6.4"/>
	
		<path style="clip-path:url(#SVGID_2_);fill:#FFFFFF;stroke:#424143;stroke-width:11.1552;stroke-linejoin:round;stroke-miterlimit:10;" d="
		M94.9,71.4h14.2c4.1,0,7.4-3.3,7.4-7.4v0c0-4.2-3.6-7.7-7.9-7.4c-3.9,0.3-6.9,3.7-6.9,7.6v0.3c0,4.6-4.5,8.1-9.3,6.4
		c-3.4-1.2-5.5-4.5-5.5-8.1c0-0.2,0-0.4,0-0.5c0-7,3.8-13.5,10.1-16.6c0.1,0,0.1-0.1,0.2-0.1c5.9-2.9,11.2-2.7,16.4-2.6
		c5.9,0.1,10.7,0.2,16.3,2.9c11.7,5.5,15.8,17.1,16.5,19.2"/>
	
		<path style="clip-path:url(#SVGID_2_);fill:none;stroke:#424143;stroke-width:11.1552;stroke-linecap:round;stroke-miterlimit:10;" d="
		M75.5,69c-6-1-7.5-1-13.4,0.1"/>
	
		<path style="clip-path:url(#SVGID_2_);fill:#FFFFFF;stroke:#424143;stroke-width:11.1552;stroke-linejoin:round;stroke-miterlimit:10;" d="
		M105,25.3c0,5.7-9.5,8.5-12.6,9.3c-4.3,1.1-9.7,2.5-13,0.2c-4.1-2.8-3.1-9.9,1-14c4.4-4.4,12.9-5.9,19.2-3.1
		C102.4,18.9,105,21.8,105,25.3z"/>
	<path style="clip-path:url(#SVGID_2_);fill:#424143;" d="M51,84.5c3.1-8,32.4-8,35.5,0c2,5.2-5.6,17.5-17.6,17.6
		C56.7,102.3,49,89.8,51,84.5z"/>
	
		<path style="clip-path:url(#SVGID_2_);fill:#424143;stroke:#424143;stroke-width:11.1552;stroke-linejoin:round;stroke-miterlimit:10;" d="
		M36.1,139.2c-0.8-3.4-1.5-8.5-0.6-14.6c1.2-8.9,5.2-15.3,7.9-18.9c1.4-1.9,1.6-4.4,0.3-6.3c0,0,0,0,0,0c0,0,0,0,0,0
		c-1.9-2.7-3.3-5.7-4-8.5c-0.4-1.6-0.6-3.1-0.6-4.6c0-2.2,0.5-3.9,0.9-5c2.1-5.9,8.1-10.8,9.8-14.6c0.5-1.1,0.8-2.3,0.8-2.3
		c0.1-0.4,0.1-0.6,0.1-3.1c0,0,0.2,1.4-0.1,3.1c-0.2,0.8-0.4,1.5-0.8,2.3c-1.3,2.9-3.9,5.6-5.5,7.3c-1.4,1.5-2.9,2.9-4.7,4.2
		c-0.1,0.1-0.3,0.2-0.3,0.2c-1.3,0.9-14.1,11.3-23.8,24.4C1,122.3-6.8,148.4-7.8,151.9L36.1,139.2z"/>
	<path style="clip-path:url(#SVGID_2_);fill:#424143;" d="M51,84.5c3.1-8,32.4-8,35.5,0c2,5.2-5.6,17.5-17.6,17.6
		C56.7,102.3,49,89.8,51,84.5z"/>
	
		<path style="clip-path:url(#SVGID_2_);fill:#424143;stroke:#424143;stroke-width:11.1552;stroke-linejoin:round;stroke-miterlimit:10;" d="
		M145.3,151.9c-1-3.5-8.8-29.6-23.1-49.1c-9.7-13.2-22.6-23.5-23.8-24.4c-0.1-0.1-0.2-0.1-0.3-0.2c-1.8-1.3-3.3-2.7-4.7-4.2
		c-1.6-1.7-4.1-4.4-5.5-7.3c-0.4-0.8-0.6-1.5-0.8-2.3c-0.3-1.8-0.1-3.1-0.1-3.1c0,2.5,0,2.8,0.1,3.1c0,0,0.2,1.2,0.8,2.3
		c1.8,3.9,7.8,8.7,9.8,14.6c0.4,1.1,0.8,2.7,0.9,5c0,1.5-0.2,3-0.6,4.6c-0.7,2.8-2.1,5.8-4,8.5c0,0,0,0,0,0c0,0,0,0,0,0
		c-1.3,1.9-1.1,4.5,0.3,6.3c2.7,3.6,6.7,10,7.9,18.9c0.9,6.1,0.1,11.2-0.6,14.6L145.3,151.9z"/>
</g>
</svg>
