<svg id="Layer_1" data-name="Calque 1" xmlns="http://www.w3.org/2000/svg" viewBox="0 0 66.3093 65.186"><defs><style>.cls-1{fill:#f49e4c;}</style></defs><path class="cls-1" d="M61.1565,57.9694l5.1528.0149L65.2112,51.66l-4.8339-.0141-.6884-5.5857,4.5522.0132-.8633-4.9711L59.0766,41.09l.3247,2.6354-.8732-7.0867,4.0766.0118-.6963-4.01-3.8745-.0112-.6848-5.5581.2375,1.9276,3.6912.0107-.5735-3.3031-3.5246-.01-.3719-3.0174,3.3723.01L59.7,19.9206l-3.2328-.0094-.3139-2.5475-3.1042-.0091.6063,8.3313-10.5737-.0308.2939-3.7395-.0569.7239,10.1172.0294-.2014-2.7671-9.6982-.0282.2-2.546-3.1043-.009-.3287,2.5456L37.07,19.8548,36.5737,22.62l3.3723.01-.3894,3.0152-3.5245-.01-.5929,3.3,3.6913.0108.13-1.0051-.643,4.98.0449-.3476-3.8745-.0113-.72,4.0061,4.0766.0118L37.57,41.0277l-4.3013-.0125-.8921,4.966,4.552.0132-.9323,7.2206.2116-1.6389-4.8338-.0141L30.24,57.88l5.1528.015-.9311,7.2113,5.5168.016.5671-7.2124,15.4585.045.5252,7.2155,5.5168.0161-1.4267-11.58ZM54.7754,41.0777,41.8716,41.04l.35-4.4487,12.23.0355Zm-.88-12.09.2679,3.681L54.16,32.618l-11.6231-.0337.4847-6.1662-.1994,2.5378ZM41.042,51.59l.6154-7.8274-.1765,2.245,13.656.04.4065,5.585Z"/></svg>