<svg id="Layer_1" data-name="Layer 1" xmlns="http://www.w3.org/2000/svg" viewBox="0 0 75.718 75.718"><defs><style>.cls-1{fill:#48525a;}</style></defs><path class="cls-1" d="M14.7387,35.2545a7.22,7.22,0,0,1,.8872.0475l.531.0707.3489-.01V50.7419q0,.4012.0183.8117-1.75-1.3089-3.4446-2.5715c-3.5241-2.6257-3.9021-2.9758-4.2644-3.5949-1.1428-1.9543-1.5053-5.9135.7869-8.2643a7.2358,7.2358,0,0,1,5.1367-1.8684h0m0-6.6639a13.7526,13.7526,0,0,0-9.908,3.88C.2519,37.1667.5278,44.4166,3.0629,48.7514c1.0889,1.8615,2.23,2.7393,6.0352,5.5744,2.7829,2.0735,7.35,5.4859,13.3716,10.0335l.112.0759a18.441,18.441,0,0,0,12.4566,4.8392H48.5214A18.5326,18.5326,0,0,0,67.0539,50.7419V31.9311a3.196,3.196,0,0,0-3.19-3.2014l-.0621.0006c-1.0363.02-2.195.05-3.4511.0975-11.7527.44-12.2325,1.5686-18.544,1.5686-.0979,0-.1963,0-.2969-.0008-7.8-.0424-9.415-1.6753-20.885-1.7439q-.3746-.0023-.73-.0022c-1.4082,0-2.5742.0243-3.3889.047l0,0a13.6407,13.6407,0,0,0-1.7671-.1058Zm20.3,34.02c-.31,0-.6143-.0231-.9185-.0466-.37-.0286-.7356-.0757-1.0959-.1376l-.0484-.0074c-.3457-.0608-.6855-.1388-1.0207-.229-.03-.0081-.0611-.0151-.0911-.0235-.3208-.089-.6348-.1933-.9443-.308-.0432-.0161-.0869-.0311-.13-.0477-.2946-.1132-.5827-.24-.8652-.3751-.0552-.0266-.1108-.0525-.166-.08-.2673-.1333-.5286-.2778-.7842-.43-.0661-.0394-.1316-.0789-.1968-.12q-.36-.2243-.7021-.4735c-.0755-.0548-.1494-.1107-.2236-.1672-.2122-.162-.42-.3307-.62-.5064-.082-.0719-.1621-.146-.2422-.22-.1846-.1707-.3652-.3459-.5386-.5278-.0871-.0915-.1709-.1862-.2549-.28-.1577-.1761-.3125-.3547-.4594-.54-.0884-.1119-.1719-.2278-.2566-.3429-.1316-.1789-.2622-.3587-.3838-.545-.0869-.1331-.1663-.271-.2478-.4077-.1072-.1791-.2149-.3579-.3125-.5429-.0818-.1556-.1545-.3164-.2293-.4759-.0832-.1763-.1691-.3512-.2436-.532s-.1362-.3658-.2017-.55c-.06-.17-.1255-.3374-.1782-.5107-.0625-.206-.1106-.4178-.1619-.6284-.0393-.16-.0854-.3178-.1179-.48-.049-.2454-.0808-.4965-.1145-.747-.018-.1343-.0449-.2656-.0586-.4012-.0385-.39-.06-.7843-.06-1.1839V35.3626c.4192.0134.81.031,1.197.049.167.0081.3362.0157.4986.0243a68.2933,68.2933,0,0,1,7.3676.8056,57.2433,57.2433,0,0,0,9.24.8178l.334.001a47.3624,47.3624,0,0,0,7.6211-.6074A91.4622,91.4622,0,0,1,60.39,35.495V50.7419A11.8822,11.8822,0,0,1,48.5214,62.6105Z"/><path class="cls-1" d="M35.03,26.0678a10.6447,10.6447,0,0,1-2.0575-7.8347,9.45,9.45,0,0,1,1.8276-3.9924,5.1973,5.1973,0,0,0,.987-1.8905,5.9023,5.9023,0,0,0-.8883-4.0391l4.8764-2.6573A11.1985,11.1985,0,0,1,41.204,13.572a10.2739,10.2739,0,0,1-1.8514,3.85,4.2789,4.2789,0,0,0-.9111,1.7766,5.42,5.42,0,0,0,1.2028,3.7794Z"/><path class="cls-1" d="M44.9362,26.0678a10.6442,10.6442,0,0,1-2.0575-7.8347,9.4549,9.4549,0,0,1,1.8275-3.9913,5.1984,5.1984,0,0,0,.987-1.8916,5.9011,5.9011,0,0,0-.8883-4.0391l4.8765-2.6573A11.199,11.199,0,0,1,51.11,13.572a10.2893,10.2893,0,0,1-1.85,3.85A4.2878,4.2878,0,0,0,48.3473,19.2,5.4187,5.4187,0,0,0,49.55,22.9778Z"/></svg>