<svg id="Layer_1" data-name="Calque 1" xmlns="http://www.w3.org/2000/svg" viewBox="0 0 100 100">
  <path id="path3853" d="M50.07,11.5885A15.5006,15.5006,0,0,0,37.4714,4.5258,14.8726,14.8726,0,0,0,22.5443,19.6581a16.8163,16.8163,0,0,0,.49,3.3761,18.0487,18.0487,0,0,0-3.3979-.4349,14.8392,14.8392,0,0,0-15.1323,14.86,15.505,15.505,0,0,0,7.1335,12.63,14.7708,14.7708,0,0,0,8.0406,27.3889,16.8172,16.8172,0,0,0,3.3325-.474,16.9037,16.9037,0,0,0-.4668,3.338A14.8726,14.8726,0,0,0,37.4714,95.4742a15.0843,15.0843,0,0,0,12.4855-6.9183,15.8444,15.8444,0,0,0,12.6116,6.9183,14.8347,14.8347,0,0,0,14.86-15.1323,17.3892,17.3892,0,0,0-.4331-3.338,17.5281,17.5281,0,0,0,3.3706.474,15.0448,15.0448,0,0,0,15.13-14.928,15.3788,15.3788,0,0,0-6.9119-12.5544,15.3437,15.3437,0,0,0,6.9119-12.5463A15.0512,15.0512,0,0,0,80.2942,22.5911a16.8239,16.8239,0,0,0-3.308.4822,18.2746,18.2746,0,0,0,.4422-3.4151,14.8347,14.8347,0,0,0-14.86-15.1323A15.34,15.34,0,0,0,50.07,11.5885ZM30.4306,26.7444h0a10.1937,10.1937,0,0,1-3.0928-7.2515v-.0182a10.1037,10.1037,0,1,1,20.2073.0427V42.9709a4.5664,4.5664,0,0,1-4.3921,4.5056H19.5969A10.2479,10.2479,0,0,1,12.38,44.4836,9.7882,9.7882,0,0,1,9.4832,37.401a10.246,10.246,0,0,1,2.98-7.198,9.8862,9.8862,0,0,1,7.0381-2.91,10.1206,10.1206,0,0,1,7.3269,3.0418s.8908.8881,1.1859,1.1741a5.7419,5.7419,0,0,0-.3995,2.1512,6.1727,6.1727,0,0,0,6.1673,6.1192,5.8419,5.8419,0,0,0,4.24-1.72,6.3626,6.3626,0,0,0,1.85-4.4148,6.4649,6.4649,0,0,0-1.856-4.4031,5.9166,5.9166,0,0,0-4.2823-1.7152,6.3686,6.3686,0,0,0-2.093.405c-.2061-.2026-1.2059-1.1778-1.2059-1.1778Zm22.0887-7.2606a10.224,10.224,0,0,1,2.9593-7.2179A9.8035,9.8035,0,0,1,62.564,9.3684,10.2516,10.2516,0,0,1,69.7646,12.35a9.8894,9.8894,0,0,1,2.9075,7.0445v.0091a10.06,10.06,0,0,1-3.0382,7.306s-.889.8944-1.1768,1.1841a5.9779,5.9779,0,0,0-2.1493-.395,6.1709,6.1709,0,0,0-6.112,6.171,5.84,5.84,0,0,0,1.7144,4.23,6.37,6.37,0,0,0,4.4139,1.8552h.0091a6.45,6.45,0,0,0,4.394-1.8615,5.8652,5.8652,0,0,0,1.7107-4.2632V33.62a6.4232,6.4232,0,0,0-.3959-2.0894c.2015-.2088,1.1786-1.2131,1.1786-1.2131a10.0934,10.0934,0,0,1,17.3679,6.9936A10.1578,10.1578,0,0,1,80.4521,47.4658h-23.45A4.5788,4.5788,0,0,1,52.52,43.03V19.4812ZM12.4361,69.8478a10.27,10.27,0,0,1-3.0264-7.19h0a10.189,10.189,0,0,1,10.129-10.1745H43a4.6523,4.6523,0,0,1,4.54,4.45V80.4816A10.3325,10.3325,0,0,1,44.51,87.705a9.7753,9.7753,0,0,1-7.08,2.8958A10.083,10.083,0,0,1,27.3187,80.577v-.0182a10.1059,10.1059,0,0,1,3.0429-7.3078s.8907-.8953,1.175-1.1831a6.002,6.002,0,0,0,2.15.395,6.16,6.16,0,0,0,6.1147-6.1683,5.8632,5.8632,0,0,0-1.7071-4.2287,6.3944,6.3944,0,0,0-4.4212-1.8542,6.4681,6.4681,0,0,0-4.4022,1.8561,5.91,5.91,0,0,0-1.7179,4.2677v.0091a6.1358,6.1358,0,0,0,.4077,2.0866c-.2107.2134-1.1859,1.2177-1.1859,1.2177a10.1985,10.1985,0,0,1-7.2515,3.0964,9.9128,9.9128,0,0,1-7.0872-2.9ZM55.5585,87.607a10.1332,10.1332,0,0,1-3.0392-7.1752V56.9746a4.6319,4.6319,0,0,1,4.4893-4.4911H80.552a10.0866,10.0866,0,1,1-7.2252,17.1309s-.8971-.8908-1.1831-1.1813a6.0231,6.0231,0,0,0,.3877-2.1475h0a6.1592,6.1592,0,0,0-6.1673-6.11,5.8132,5.8132,0,0,0-4.2215,1.7053,6.4117,6.4117,0,0,0-1.8578,4.4239,6.4765,6.4765,0,0,0,1.8624,4.4031,5.8813,5.8813,0,0,0,4.2741,1.7143,6.2,6.2,0,0,0,2.0867-.404c.21.2061,1.2094,1.18,1.2094,1.18a10.1941,10.1941,0,0,1,3.1037,7.2524V80.46a10.114,10.114,0,0,1-17.2626,7.1453" style="fill: #e00000"/>
</svg>
