<svg id="Layer_1" data-name="Calque 1" xmlns="http://www.w3.org/2000/svg" viewBox="0 0 390.4276 908.8968">
  <path d="M98.0736,396.1356a199.68,199.68,0,0,1,20.6646-3.07l.0288-.0028.0293-.0026L172.83,387.969,99.494,307.5023a131.178,131.178,0,0,1-34.2978-88.5517H4.4423a191.7948,191.7948,0,0,0,50.15,129.4755Z" style="fill: #007af4"/>
  <path d="M287.6229,513.919q-8.1877,1.4787-16.5556,2.2869l-.0288.0028-.0284.0026-58.4765,5.51,73.1284,80.2383A131.18,131.18,0,0,1,319.96,690.5111h60.7539a191.8061,191.8061,0,0,0-50.1494-129.4756Z" style="fill: #007af4"/>
  <path d="M388.0194,335.6576c-10.0273-49.5762-48.9336-85.6807-99.1191-91.9815l-9.2549-1.1621A62.9188,62.9188,0,0,1,224.6581,180.19V147.8577a76.8713,76.8713,0,1,0-60.7539-.8161V180.19A123.7749,123.7749,0,0,0,272.0761,302.7933l9.2558,1.1621c28.9688,3.6377,43.3457,24.9825,47.1406,43.7461s-1.1562,44.0176-26.4355,58.627A98.104,98.104,0,0,1,262.0233,419.14L122.6649,432.2709a158.5,158.5,0,0,0-64.6758,20.6943c-43.791,25.31-65.6084,73.6963-55.581,123.2715s48.9336,85.68,99.1191,91.9805l9.2549,1.1621a62.9188,62.9188,0,0,1,54.9873,62.3242v29.44a76.876,76.876,0,1,0,60.7539.5919v-30.032A123.7749,123.7749,0,0,0,118.3514,609.1l-9.2558-1.1621c-28.9678-3.6377-43.3447-24.9825-47.14-43.7452s1.1563-44.0185,26.4346-58.6279a98.1205,98.1205,0,0,1,40.0137-12.8125l139.3584-13.13a158.5,158.5,0,0,0,64.6758-20.6943C376.23,433.6185,398.0468,385.2318,388.0194,335.6576Z" style="fill: #007af4"/>
</svg>
