<svg id="Layer_1" data-name="Calque 1" xmlns="http://www.w3.org/2000/svg" viewBox="0 0 66.3093 65.186"><defs><style>.cls-1{fill:#3b8ea5;}</style></defs><path class="cls-1" d="M39.2815,43.26A36.5411,36.5411,0,0,0,29.76,32.1424a24.1059,24.1059,0,0,1-15.2075,5.4058h-3.519V43.016c.281.12.4948.2017.61.2439Z"/><path class="cls-1" d="M66.3093,28.3356H57.0967A9.2126,9.2126,0,0,0,47.884,19.123H44.3652a9.2126,9.2126,0,0,0-8.24,5.0926A24.1,24.1,0,0,1,32.35,29.7062a39.5967,39.5967,0,0,1,9.9917,11.8544L45.2287,46.76H11.0337v.0009H1.821s5.7251,5.7251,10.7923,10.7927A26.1064,26.1064,0,0,0,31.1374,65.186h.4131A25.5469,25.5469,0,0,0,57.0974,39.6325l-.0007-2.0843ZM48.8012,30.3419a3.3063,3.3063,0,1,1,3.3064-3.3064A3.3065,3.3065,0,0,1,48.8012,30.3419Z"/><path class="cls-1" d="M2.431,24.8347c3.4109-.3854,15.4306-1.3176,26.3872,6.577A36.2837,36.2837,0,0,1,39.2816,43.26H11.6436c-.8623-.3158-7.01-2.684-9.2126-9.2126A14.828,14.828,0,0,1,2.431,24.8347Z"/></svg>