<svg id="Layer_1" data-name="Layer 1" xmlns="http://www.w3.org/2000/svg" viewBox="0 0 75.718 75.718"><defs><style>.cls-1{fill:#2f728f;}</style></defs><circle class="cls-1" cx="37.8672" cy="23.5783" r="10.3641" transform="translate(1.5926 49.54) rotate(-67.5)"/><path class="cls-1" d="M59.9089,6.2911a5.1546,5.1546,0,1,0-8.062,6.4253c4.6372,5.8175,5.5313,13.29,2.2226,18.5975a14.679,14.679,0,0,1-8.4745,6.0112c-.8015.01-1.6485.0017-2.4045.01-.1259,0-.2438.0282-.3674.037h-9.36c-1.0052.0084-2.0188,0-3.019-.0168a4.9439,4.9439,0,0,0-3.408,1.2056,36.3421,36.3421,0,0,0-5.2669,5.4656c-7.0114,9.0032-8.2422,19.2761-8.04,26.3093a5.1551,5.1551,0,0,0,5.1491,5.0059c.05,0,.101-.0017.1515-.0017A5.1557,5.1557,0,0,0,24.034,70.04a32.94,32.94,0,0,1,2.5947-14.1822,165.59,165.59,0,0,1-.5119,19.0551l-.3,3.43c-.0062.0713.0069.141.0036.2122-.0037.08-.0238.155-.0238.2357,0,.113.0261.2188.0333.33.0052.0805-.0049.1626.0041.2426l-.0744,32.226a5.1541,5.1541,0,1,0,10.3082,0L36.12,83.9443h4.3744l.0522,27.6445a5.1541,5.1541,0,0,0,10.3082,0l-.0732-32.44c.0085-.1208.0362-.236.0362-.3589a5.0588,5.0588,0,0,0-.0569-.5649l-.492-11.284c-.229-5.1608-.2054-10.5388.0741-15.9724l.2346-4.4485A24.4656,24.4656,0,0,0,62.82,36.7627C68.4306,27.7611,67.26,15.5166,59.9089,6.2911Z"/></svg>