<svg id="Layer_1" data-name="Layer 1" xmlns="http://www.w3.org/2000/svg" viewBox="0 0 75.718 75.718">
  <circle cx="37.6022" cy="15.3456" r="5.8783"/>
  <path d="M47.276,26.94a21.0272,21.0272,0,0,0-2.9855-3.1012,2.829,2.829,0,0,0-1.944-.6942H40.6339c-.0694,0-.1388.0231-.2083.0231H33.39a2.91,2.91,0,0,0-1.944.6943,21.0267,21.0267,0,0,0-2.9854,3.1012,23.08,23.08,0,0,0-4.5592,14.95,2.9194,2.9194,0,0,0,2.916,2.8466H26.91a2.9247,2.9247,0,0,0,2.8466-3.0086,18.65,18.65,0,0,1,1.5043-8.1A94.5637,94.5637,0,0,1,30.96,44.5291l-.162,1.944v.1157c0,.0463-.0231.0926-.0231.1389,0,.0694.0231.1157.0231.1851v.1157L30.7518,56.54v8.7943a2.9161,2.9161,0,1,0,5.8321,0V56.54l.0231-6.8967h2.4995l.0231,15.691a2.9161,2.9161,0,1,0,5.8321,0V56.4941l-.0463-9.5813c0-.0694.0231-.1388.0231-.2083,0-.1157-.0231-.2083-.0231-.324L44.6377,39.97c-.0926-1.99-.1157-4.05-.0694-6.1329a18.7477,18.7477,0,0,1,1.3885,7.8686,2.9247,2.9247,0,0,0,2.8466,3.0086h.0926a2.9193,2.9193,0,0,0,2.916-2.8466A22.8859,22.8859,0,0,0,47.276,26.94Z"/>
</svg>
