<svg id="Calque_1" data-name="Calque 1" xmlns="http://www.w3.org/2000/svg" viewBox="0 0 66.3093 65.186"><defs><style>.cls-1{fill:#2d728f;}</style></defs><polygon class="cls-1" points="38.53 34.738 38.53 39.662 53.546 39.662 46.742 46.465 50.224 49.947 62.971 37.2 50.224 24.452 46.742 27.934 53.546 34.738 38.53 34.738"/><circle class="cls-1" cx="22.0615" cy="20.8732" r="4.6635"/><path class="cls-1" d="M32.9931,37.5053A22.636,22.636,0,0,1,28.699,33.62a23.2525,23.2525,0,0,1-2.9256-4.3766,2.3533,2.3533,0,0,0-1.5362-1.2179l-1.3548-.3181c-.09-.0261-.183-.0156-.2729-.0417L18.42,26.6642a11.2074,11.2074,0,0,0-1.6429-.3979A11.38,11.38,0,0,0,7.59,28.34a10.7715,10.7715,0,0,0-3.6614,6.211,2.3269,2.3269,0,0,0,1.8125,2.7341,1.3956,1.3956,0,0,0,.2728.0416,2.3049,2.3049,0,0,0,2.4612-1.8541,6.0792,6.0792,0,0,1,2.0327-3.53,6.0676,6.0676,0,0,1,3.846-1.2387A76.8718,76.8718,0,0,1,11.48,42.38l-.371,1.1109c-.6236.8313-1.2472,1.6627-1.8692,2.4757L7.9926,47.63a2.738,2.738,0,0,1-2.4689,1.08l-2.9589-.3073a2.323,2.323,0,0,0-.4856,4.6205l2.9589.3072a7.5194,7.5194,0,0,0,6.6407-2.8985l1.2472-1.6627c.3943-.5192.79-1.0567,1.2028-1.5744l3.7918.9126,1.4784,3.6269a8.9383,8.9383,0,0,1,.6144,4.2534c-.0452.5305-.1087,1.06-.1539,1.59s-.1071,1.0412-.1522,1.5717a2.3157,2.3157,0,0,0,2.0689,2.5347l.0366.0032a2.3079,2.3079,0,0,0,2.4982-2.0721c.0452-.5306.1086-1.0595.1538-1.59s.1071-1.0412.1539-1.59a13.815,13.815,0,0,0-.9428-6.4557l-1.6606-4.0846.8589-4.46c.3893-1.9753.8534-3.9627,1.386-5.8889.2814.374.5826.7314.8838,1.0887a27.67,27.67,0,0,0,5.1663,4.678,2.3281,2.3281,0,0,0,3.2365-.572A2.3087,2.3087,0,0,0,32.9931,37.5053Z"/><path class="cls-1" d="M66.3093,23.6h-.0437c-.0051-5.9571-.0124-11.85-.0261-16.5223q-7.5758,2.436-15.1443,4.88v8.0812L53.12,22.0632,64.3167,33.26v7.5766L53.12,52.0339l-2.0245,2.0243V61.695l15.2141,3.491c-.0043-1.6036-.0085-6.9765-.0117-9h.0117Z"/></svg>