<svg id="Layer_1" data-name="Layer 1" xmlns="http://www.w3.org/2000/svg" viewBox="0 0 75.718 75.718">
  <path d="M48.9412,12.5945a15.3549,15.3549,0,0,0-2.6257,3.5214L32.22,11.4209l4.1467-4.1467a2.4245,2.4245,0,0,1,3.4254-.001A2.707,2.707,0,0,0,43.62,3.4449a7.8455,7.8455,0,0,0-11.082.001L27.3967,8.5875a4.5415,4.5415,0,0,0,1.77,7.5228l3.91,1.3027L16.3315,34.1592a5.3684,5.3684,0,0,0-7.4287.1391l-2.905,2.905a.7636.7636,0,0,1-1.08.0005L3.7449,36.0309-.0835,39.8592,1.09,41.0321a6.1847,6.1847,0,0,0,8.7366-.0005l2.8473-2.905,1.2991,1.299L16.2308,46.2a15.3723,15.3723,0,1,0,19.9653,4.728L44.554,42.57,41.82,20.3252l2.7955.9312a15.3525,15.3525,0,1,0,4.3262-8.6619ZM30.61,66.7234A9.9515,9.9515,0,1,1,17.984,51.459l2.7217,8.1646a3.3107,3.3107,0,0,0,5.4847,1.31l6.0753-6.0752A9.9646,9.9646,0,0,1,30.61,66.7234Zm-2.163-15.7025L24.77,54.6979l-1.6454-4.9361A9.9536,9.9536,0,0,1,28.4467,51.0209Zm3.9239-3.9239A15.3434,15.3434,0,0,0,21.37,44.4989L20.2908,41.261,35.97,43.4975Zm6.2171-8.6943L22.0965,36.0508,36.5253,21.6219Zm28.2521-7.91a9.942,9.942,0,0,1-16.968-7.4855l9.0852,3.0266a2.7075,2.7075,0,0,0,1.7112-5.1376l-9.0937-3.029A9.9494,9.9494,0,1,1,66.84,30.4932Z" style="fill: #ac3428"/>
</svg>
