<svg id="Layer_1" data-name="Layer 1" xmlns="http://www.w3.org/2000/svg" viewBox="0 0 75.718 75.718">
  <g>
    <path d="M74.1309,8.6251A4.0458,4.0458,0,0,0,70.6573,4.62L57.15,2.6905a136.3982,136.3982,0,0,0-38.5821,0L5.061,4.62A4.0458,4.0458,0,0,0,1.5872,8.6251v58.462a2.6484,2.6484,0,0,0,2.6485,2.6484H6.7688V67.1447a2.5909,2.5909,0,1,1,5.1818,0v2.5908h4.318V69.689h1.7272V67.4666l5.3517-5.3518H25.57L17.9958,69.689H19.624l7.5741-7.5742h.2975V47.9505l0,0a77.44,77.44,0,0,0,20.7278,0l-.0007,0V62.1148h.4505L41.0986,69.689H42.727l7.574-7.5742h2.2222L44.9491,69.689h1.6282l7.5743-7.5742h2.2223L48.8,69.689H50.428l7.2941-7.2941v2.222L52.65,69.689h1.6284l3.4438-3.4438v2.2223L56.5006,69.689h2.9487v.0465h4.3182V67.1447a2.5908,2.5908,0,1,1,5.1816,0v2.5908h2.5334a2.6484,2.6484,0,0,0,2.6484-2.6484V31.0247l-.0412.0246c.0219-.33.0412-.6613.0412-.9961ZM69.0132,7.2433a2.5695,2.5695,0,1,1-2.57,2.5695A2.5695,2.5695,0,0,1,69.0132,7.2433ZM53.4041,11.4494a16.1425,16.1425,0,0,1,15.545,16.1315v3.8716a4.7539,4.7539,0,0,1-4.7538,4.7539H53.4041Zm-31.09,0v24.757H11.5228a4.7539,4.7539,0,0,1-4.754-4.7539V27.5809A16.1426,16.1426,0,0,1,22.314,11.4494ZM6.7688,7.2433A2.5695,2.5695,0,1,1,4.2,9.8128,2.5694,2.5694,0,0,1,6.7688,7.2433Zm11.227,58.5951V63.6161l1.5012-1.5013h2.2223Zm9.5-29.632V10.2979a72.6938,72.6938,0,0,1,20.7267,0V36.2064Z" style="fill: #f49e4e"/>
    <circle cx="9.3803" cy="67.1482" r="1.0201" style="fill: #f49e4e"/>
    <circle cx="66.3788" cy="67.1482" r="1.0201" style="fill: #f49e4e"/>
    <polygon points="37.248 61.988 29.547 69.689 31.175 69.689 38.877 61.988 37.248 61.988" style="fill: #f49e4e"/>
    <polygon points="41.099 61.988 33.398 69.689 35.026 69.689 42.727 61.988 41.099 61.988" style="fill: #f49e4e"/>
    <polygon points="33.398 61.988 25.697 69.689 27.325 69.689 35.026 61.988 33.398 61.988" style="fill: #f49e4e"/>
    <polygon points="44.949 61.988 37.248 69.689 38.877 69.689 46.577 61.988 44.949 61.988" style="fill: #f49e4e"/>
    <polygon points="29.547 61.988 21.846 69.689 23.475 69.689 31.176 61.988 29.547 61.988" style="fill: #f49e4e"/>
    <polygon points="15.794 75.095 12.748 75.095 11.947 69.662 16.595 69.662 15.794 75.095" style="fill: #f49e4e"/>
    <polygon points="59.924 75.095 62.97 75.095 63.771 69.662 59.123 69.662 59.924 75.095" style="fill: #f49e4e"/>
  </g>
</svg>
