<svg id="Layer_1" data-name="Layer 1" xmlns="http://www.w3.org/2000/svg" viewBox="0 0 75.718 75.718"><defs><style>.cls-1{fill:#48525a;}</style></defs><path class="cls-1" d="M16.0478,35.04h0a7.928,7.928,0,0,1,.9746.0523l.582.0774.3821-.011v16.872q0,.441.02.89Q16.0886,51.4863,14.228,50.1C10.3618,47.22,9.9472,46.8355,9.55,46.156c-1.2539-2.1438-1.6516-6.4872.8631-9.0662a7.937,7.937,0,0,1,5.635-2.05m0-7.3107a15.0867,15.0867,0,0,0-10.87,4.2568C.1552,37.1378.4577,45.0914,3.2392,49.847c1.1943,2.0422,2.4463,3.0052,6.6208,6.1155,3.053,2.2747,8.063,6.0183,14.67,11.0073l.1228.0833A20.232,20.232,0,0,0,38.3181,72.362H53.11A20.3312,20.3312,0,0,0,73.4411,52.0307V31.3941a3.5062,3.5062,0,0,0-3.4993-3.5122l-.0681.0006c-1.1369.0217-2.4082.0554-3.7864.107-12.8935.4829-13.42,1.7209-20.344,1.7209-.1071,0-.2153,0-.3256-.0009-8.5564-.0466-10.3289-1.8379-22.9121-1.9132q-.4106-.0024-.8-.0024c-1.5452,0-2.8242.0267-3.7183.0516l-.0007,0a14.9559,14.9559,0,0,0-1.9385-.1161Zm22.27,37.3221c-.34,0-.6739-.0254-1.0076-.0512-.4065-.0313-.8071-.083-1.2024-.1509-.0176-.003-.0354-.005-.053-.0081-.3794-.0668-.7522-.1523-1.12-.2512-.0332-.009-.0671-.0166-.1-.0258-.3518-.0977-.6962-.2121-1.0358-.338-.0474-.0177-.0955-.0341-.1426-.0523-.3235-.1242-.6394-.2629-.9492-.4115-.0608-.0291-.1219-.0576-.1822-.0877-.2934-.1463-.58-.3047-.86-.472-.0725-.0433-.1446-.0866-.2158-.1313q-.3956-.2462-.7706-.52c-.0827-.06-.164-.1213-.2451-.1833q-.3493-.2667-.6806-.5556c-.09-.0789-.178-.16-.2657-.2415-.2026-.1872-.4006-.3794-.591-.579-.0955-.1-.1875-.2043-.28-.3077-.1726-.1932-.3425-.3892-.5039-.5925-.0969-.1228-.1885-.25-.2813-.3762-.1445-.1962-.2878-.3935-.4214-.598-.0949-.1459-.1823-.2972-.2717-.4472-.1177-.1965-.2356-.3926-.3428-.5956-.09-.1706-.1694-.3471-.2517-.5221-.0913-.1934-.1855-.3852-.2671-.5836s-.15-.4013-.2211-.6035c-.0664-.1862-.138-.37-.1956-.56-.0686-.2261-.1213-.4585-.1775-.6895-.0432-.1757-.0937-.3486-.1294-.5272-.0539-.2691-.0886-.5446-.1257-.8194-.02-.1473-.0493-.2914-.0642-.44-.0425-.4274-.0657-.86-.0657-1.2988V35.1587c.46.0146.8889.0339,1.3132.0537.1831.0088.3687.0172.5469.0266a74.9549,74.9549,0,0,1,8.083.8838,62.7883,62.7883,0,0,0,10.137.8972l.3664.0011a51.9758,51.9758,0,0,0,8.3609-.6663,100.339,100.339,0,0,1,12.0259-1.051V52.0307A13.0357,13.0357,0,0,1,53.11,65.0514Z"/><path class="cls-1" d="M38.3094,24.9617c-1.9824-2.9593-2.7416-5.8513-2.2573-8.5952a10.3674,10.3674,0,0,1,2.005-4.38A5.699,5.699,0,0,0,39.14,9.9125a6.4747,6.4747,0,0,0-.9745-4.4311l5.35-2.9153a12.2855,12.2855,0,0,1,1.5671,8.6868,11.2727,11.2727,0,0,1-2.0311,4.2235,4.6941,4.6941,0,0,0-.9995,1.9491,5.9459,5.9459,0,0,0,1.32,4.1462Z"/><path class="cls-1" d="M49.1766,24.9617c-1.9823-2.9593-2.7415-5.8513-2.2572-8.5952a10.3727,10.3727,0,0,1,2.005-4.3788,5.7035,5.7035,0,0,0,1.0828-2.0752,6.4747,6.4747,0,0,0-.9745-4.4311l5.35-2.9153A12.2855,12.2855,0,0,1,55.95,11.2529a11.29,11.29,0,0,1-2.03,4.2235,4.7034,4.7034,0,0,0-1.0007,1.95,5.9457,5.9457,0,0,0,1.32,4.145Z"/></svg>