<svg id="Layer_1" data-name="Layer 1" xmlns="http://www.w3.org/2000/svg" viewBox="0 0 75.718 75.718">
  <path d="M69.9418,27.8819l-.0681.0006c-1.1369.0217-2.4082.0554-3.7864.107-12.8935.4829-13.42,1.7209-20.344,1.7209-.1071,0-.2153,0-.3256-.001-8.5564-.0465-10.3289-1.8378-22.9121-1.9131q-.4106-.0024-.8-.0024c-1.5452,0-2.8242.0266-3.7183.0516l-.0007,0a14.9366,14.9366,0,0,0-1.9385-.1161,15.0867,15.0867,0,0,0-10.87,4.2568C.1552,37.1378.4577,45.0914,3.2392,49.847c1.1943,2.0422,2.4463,3.0052,6.6208,6.1155,3.053,2.2747,8.063,6.0183,14.67,11.0073.0285.0195.0837.0567.1228.0833A20.232,20.232,0,0,0,38.3181,72.362H53.11A20.3312,20.3312,0,0,0,73.4411,52.0307V31.3941A3.5062,3.5062,0,0,0,69.9418,27.8819ZM14.228,50.1C10.3618,47.22,9.9472,46.8355,9.55,46.156c-1.2539-2.1439-1.6516-6.4872.8631-9.0662a7.937,7.937,0,0,1,5.635-2.05,7.928,7.928,0,0,1,.9746.0523l.582.0774.3821-.011v16.872q0,.441.02.89Q16.0886,51.4863,14.228,50.1Z" style="fill: #48525a"/>
  <path d="M38.3094,24.9617c-1.9824-2.9593-2.7416-5.8513-2.2573-8.5952a10.3674,10.3674,0,0,1,2.005-4.38A5.699,5.699,0,0,0,39.14,9.9125a6.4747,6.4747,0,0,0-.9745-4.4311l5.35-2.9153a12.2855,12.2855,0,0,1,1.5671,8.6868,11.2727,11.2727,0,0,1-2.0311,4.2235,4.6941,4.6941,0,0,0-.9995,1.9491,5.9459,5.9459,0,0,0,1.32,4.1462Z" style="fill: #48525a"/>
  <path d="M49.1766,24.9617c-1.9823-2.9593-2.7415-5.8513-2.2572-8.5952a10.3727,10.3727,0,0,1,2.005-4.3788,5.7035,5.7035,0,0,0,1.0828-2.0752,6.4747,6.4747,0,0,0-.9745-4.4311l5.35-2.9153A12.2855,12.2855,0,0,1,55.95,11.2529a11.29,11.29,0,0,1-2.03,4.2235,4.7034,4.7034,0,0,0-1.0007,1.95,5.9457,5.9457,0,0,0,1.32,4.145Z" style="fill: #48525a"/>
</svg>
