<svg id="Layer_1" data-name="Calque 1" xmlns="http://www.w3.org/2000/svg" viewBox="0 0 48 48">
  <path d="M29.1611,46.8505l-8.3019-7.69a1.4692,1.4692,0,0,1-.08-2.0763l2.6357-2.8458a1.4692,1.4692,0,0,1,2.0763-.0795h0L29.87,38.2151,41.2958,25.8794A1.4692,1.4692,0,0,1,43.3721,25.8l2.8458,2.636a1.4692,1.4692,0,0,1,.08,2.0763l-15.06,16.2589a1.4694,1.4694,0,0,1-2.0764.08Z" style="fill: #4b5159"/>
  <g>
    <path d="M18.5429,41.6614a4.8833,4.8833,0,0,1-.264-6.8929l2.6358-2.846a4.8778,4.8778,0,0,1,6.8933-.2637l1.8777,1.7393,9.11-9.8351a4.8209,4.8209,0,0,1,5.1975-1.2741C43.9939,22.1923,44,22.0969,44,22A22,22,0,1,0,21.0415,43.9758ZM14.502,29a2.5,2.5,0,0,1-1.2881-4.6436L19.5,20.5845V8a2.5,2.5,0,0,1,5,0V23.4155l-8.7139,5.2281A2.4816,2.4816,0,0,1,14.502,29Z" style="fill: #4b5159"/>
    <path d="M43.6245,26.0337,43.3721,25.8a1.4693,1.4693,0,0,0-2.0763.0795L29.87,38.2151l-4.3784-4.0558a1.4692,1.4692,0,0,0-2.0764.0795L20.78,37.0846a1.4691,1.4691,0,0,0,.08,2.0762l4.8765,4.5169A22.0117,22.0117,0,0,0,43.6245,26.0337Z" style="fill: #4b5159"/>
  </g>
</svg>
