<svg id="Layer_1" data-name="Layer 1" xmlns="http://www.w3.org/2000/svg" viewBox="0 0 75.718 75.718">
  <circle cx="45.323" cy="16.0702" r="5.8785"/>
  <path d="M59.1027,37.0356A28.5318,28.5318,0,0,1,53.69,32.1383a29.3127,29.3127,0,0,1-3.6878-5.5169,2.9661,2.9661,0,0,0-1.9364-1.5353l-1.7079-.4009c-.1133-.0329-.2306-.02-.3439-.0526L40.7327,23.37a14.13,14.13,0,0,0-2.071-.5015,14.3448,14.3448,0,0,0-11.5805,2.6139,13.5783,13.5783,0,0,0-4.6154,7.8293,2.933,2.933,0,0,0,2.2847,3.4463,1.7577,1.7577,0,0,0,.344.0526,2.9055,2.9055,0,0,0,3.1024-2.3372,7.1005,7.1005,0,0,1,7.41-6.0118,96.892,96.892,0,0,1-3.6226,14.7192l-.4677,1.4c-.786,1.0479-1.5721,2.0959-2.3562,3.1207l-1.5721,2.0959a3.4516,3.4516,0,0,1-3.1122,1.3609l-3.73-.3873a2.9281,2.9281,0,0,0-.6122,5.8242l3.73.3874a9.4791,9.4791,0,0,0,8.3709-3.6538l1.5721-2.0959c.497-.6545.9961-1.332,1.5162-1.9845l4.78,1.15,1.8637,4.5718a11.2661,11.2661,0,0,1,.7744,5.3617c-.0569.6687-.1369,1.3355-.1939,2.0042s-.135,1.3124-.1919,1.9812a2.9191,2.9191,0,0,0,2.608,3.1951l.0461.0039a2.909,2.909,0,0,0,3.149-2.6119c.057-.6687.137-1.3355.1939-2.0042s.135-1.3125.194-2.0043a17.4135,17.4135,0,0,0-1.1884-8.1377L45.2648,47.61l1.0826-5.6216c.4908-2.49,1.0758-4.9951,1.7471-7.4232.3547.4715.7344.922,1.1141,1.3724a34.8755,34.8755,0,0,0,6.5124,5.8968,2.9345,2.9345,0,0,0,4.08-.721A2.91,2.91,0,0,0,59.1027,37.0356Z"/>
</svg>
