<svg id="Layer_1" data-name="Layer 1" xmlns="http://www.w3.org/2000/svg" viewBox="0 0 75.718 75.718">
  <circle cx="39.6109" cy="15.4498" r="5.8783"/>
  <path d="M57.8708,32.622a28.0958,28.0958,0,0,1-6.3875-3.4947,27.9856,27.9856,0,0,1-4.86-4.5129,2.9736,2.9736,0,0,0-2.2912-1.0414H42.6658c-.1389,0-.2546.0231-.37.0231H36.8337a9.4926,9.4926,0,0,0-2.2911,0c-5.1147.6249-8.1,4.93-9.697,7.29a24.64,24.64,0,0,0-3.564,8.0307,2.9251,2.9251,0,0,0,2.1523,3.5409,3.5709,3.5709,0,0,0,.6943.0926,2.9606,2.9606,0,0,0,2.8466-2.2218,18.5746,18.5746,0,0,1,2.7309-6.1329,14.7139,14.7139,0,0,1,3.402-3.8649,93.1428,93.1428,0,0,1-.1389,14.6033l-.1388,1.62L31.7885,50.581a13.3805,13.3805,0,0,1-4.1194,6.7115L24.4985,60.07A2.92,2.92,0,1,0,28.34,64.4669L31.5108,61.69a19.0639,19.0639,0,0,0,5.9247-9.6507l.5091-2.0134h3.888l1.2961,4.42a17.4389,17.4389,0,0,1,.7174,4.8832v5.9015a2.9161,2.9161,0,0,0,5.8321,0V59.3291a23.1115,23.1115,0,0,0-.9489-6.5495L46.901,46.6235l-.2546-6.2255c-.1157-2.4763-.1157-5.0452-.0231-7.614.4628.37.9257.7405,1.4117,1.0877a32.9751,32.9751,0,0,0,7.73,4.212,2.8129,2.8129,0,0,0,1.0646.2083A2.9206,2.9206,0,0,0,59.56,36.4174,2.9711,2.9711,0,0,0,57.8708,32.622Z"/>
</svg>
